<?xml version="1.0" encoding="UTF-8" standalone="no"?>
<svg
   xmlns:dc="http://purl.org/dc/elements/1.1/"
   xmlns:cc="http://creativecommons.org/ns#"
   xmlns:rdf="http://www.w3.org/1999/02/22-rdf-syntax-ns#"
   xmlns:svg="http://www.w3.org/2000/svg"
   xmlns="http://www.w3.org/2000/svg"
   xmlns:sodipodi="http://sodipodi.sourceforge.net/DTD/sodipodi-0.dtd"
   xmlns:inkscape="http://www.inkscape.org/namespaces/inkscape"
   width="64.0px"
   height="64.0px"
   viewBox="0 0 64.0 64.0"
   version="1.1"
   id="SVGRoot"
   sodipodi:docname="mfeed.svg"
   inkscape:version="1.0.1 (3bc2e813f5, 2020-09-07)">
  <defs
     id="defs1402" />
  <sodipodi:namedview
     id="base"
     pagecolor="#ffffff"
     bordercolor="#666666"
     borderopacity="1.0"
     inkscape:pageopacity="0.0"
     inkscape:pageshadow="2"
     inkscape:zoom="3.959798"
     inkscape:cx="45.19252"
     inkscape:cy="13.952706"
     inkscape:document-units="px"
     inkscape:current-layer="layer2"
     inkscape:document-rotation="0"
     showgrid="true"
     inkscape:window-width="1920"
     inkscape:window-height="1016"
     inkscape:window-x="0"
     inkscape:window-y="27"
     inkscape:window-maximized="1">
    <inkscape:grid
       type="xygrid"
       id="grid1972" />
  </sodipodi:namedview>
  <metadata
     id="metadata1405">
    <rdf:RDF>
      <cc:Work
         rdf:about="">
        <dc:format>image/svg+xml</dc:format>
        <dc:type
           rdf:resource="http://purl.org/dc/dcmitype/StillImage" />
        <dc:title></dc:title>
      </cc:Work>
    </rdf:RDF>
  </metadata>
  <g
     inkscape:label="Layer 1"
     inkscape:groupmode="layer"
     id="layer1" />
  <g
     inkscape:groupmode="layer"
     id="layer2"
     inkscape:label="Layer 2">
    <circle
       style="fill:#000002;stroke-width:0;stroke-linecap:round;stroke-linejoin:round;paint-order:fill markers stroke;fill-opacity:1"
       id="path3009"
       cx="12.5"
       cy="52.5"
       r="7.5" />
    <path
       style="fill:none;stroke:#000000;stroke-width:1px;stroke-linecap:butt;stroke-linejoin:miter;stroke-opacity:1"
       d="m 5,5 c 0,0 55,-2e-7 55,55"
       id="path3017" />
    <path
       style="fill:none;stroke:#000000;stroke-width:1px;stroke-linecap:butt;stroke-linejoin:miter;stroke-opacity:1"
       d="m 5,15 c 0,0 45,0 45,45"
       id="path3019" />
    <path
       style="fill:none;stroke:#000000;stroke-width:1px;stroke-linecap:butt;stroke-linejoin:miter;stroke-opacity:1"
       d="m 5,25 c 0,0 35,0 35,35"
       id="path3021" />
    <path
       style="fill:none;stroke:#000000;stroke-width:1px;stroke-linecap:butt;stroke-linejoin:miter;stroke-opacity:1"
       d="m 5,35 c 0,0 25,0 25,25"
       id="path3023" />
    <path
       style="fill:none;stroke:#000000;stroke-width:1px;stroke-linecap:round;stroke-linejoin:miter;stroke-opacity:1"
       d="M 5,25 V 35"
       id="path3025" />
    <path
       style="fill:none;stroke:#000000;stroke-width:1.0015748;stroke-linecap:round;stroke-linejoin:miter;stroke-opacity:1;stroke-miterlimit:4;stroke-dasharray:none"
       d="M 30,60 H 40"
       id="path3027" />
    <path
       style="fill:none;stroke:#000000;stroke-width:1px;stroke-linecap:round;stroke-linejoin:miter;stroke-opacity:1"
       d="M 50,60 H 60"
       id="path3029" />
    <path
       style="fill:none;stroke:#000000;stroke-width:1px;stroke-linecap:round;stroke-linejoin:miter;stroke-opacity:1"
       d="M 5,5 V 15"
       id="path3031" />
    <path
       style="fill:none;stroke:#000000;stroke-width:1px;stroke-linecap:butt;stroke-linejoin:miter;stroke-opacity:1"
       d="M 30,60 Z"
       id="path3037" />
    <path
       style="fill:#536c5d;fill-opacity:1;stroke:#000000;stroke-width:1.53527;stroke-linecap:round;stroke-linejoin:round;stroke-miterlimit:4;stroke-dasharray:none;stroke-opacity:1;paint-order:markers stroke fill"
       d="M 30.561886,58.784821 C 30.527152,58.420219 30.438661,57.433028 30.365238,56.591065 29.70768,49.050536 26.167866,42.886178 20.315939,39.09085 16.450734,36.584032 11.716825,35.018867 6.4579088,34.508993 l -0.8523162,-0.08264 v -4.427484 -4.427484 l 1.1679889,0.08621 c 0.6423939,0.04742 1.8782524,0.194257 2.7463522,0.326313 10.8935133,1.657134 19.6117583,6.679512 24.5188453,14.124737 3.304478,5.013686 4.944705,10.465316 5.353146,17.792288 l 0.08623,1.546796 h -4.42656 -4.426555 z"
       id="path5003" />
    <path
       style="fill:#536c5d;fill-opacity:1;stroke:#000000;stroke-width:1.53448819;stroke-linecap:round;stroke-linejoin:round;stroke-miterlimit:4;stroke-dasharray:none;stroke-opacity:1;paint-order:markers stroke fill"
       d="M 50.506138,57.458996 C 49.674596,38.586525 40.965249,25.557392 24.577957,18.670587 19.468459,16.523306 12.441043,14.873134 6.9984154,14.542572 L 5.6055926,14.457978 V 10.001756 5.5455344 l 0.9154508,0.064688 c 9.1646376,0.6475934 17.6682016,2.8700675 25.2853806,6.6085356 5.454529,2.677051 9.504389,5.527817 13.454723,9.471009 8.397862,8.382677 13.048323,19.410593 14.005584,33.21228 0.06984,1.006996 0.127549,2.441728 0.128236,3.188294 l 0.0012,1.357392 H 54.99499 50.593764 Z"
       id="path5005" />
    <path
       style="fill:#536c5d;fill-opacity:1;stroke:#000000;stroke-width:2.43401575;stroke-linecap:round;stroke-linejoin:round;stroke-miterlimit:4;stroke-dasharray:none;stroke-opacity:1;paint-order:stroke fill markers"
       d="M 11.81358,59.943477 C 10.657935,59.835088 9.4096714,59.403436 8.4653661,58.785658 5.2476997,56.680612 4.1155162,52.569387 5.8177807,49.17165 c 1.0386034,-2.073063 2.9043035,-3.50337 5.2295333,-4.009132 0.389138,-0.08464 0.593649,-0.09896 1.435909,-0.100512 0.862055,-0.0016 1.040682,0.01078 1.460906,0.1012 3.026155,0.651128 5.240309,2.865282 5.891437,5.891437 0.09042,0.420224 0.102793,0.598852 0.101201,1.460906 -0.0016,0.84226 -0.01587,1.046771 -0.100513,1.435909 -0.722874,3.3234 -3.365383,5.685462 -6.705709,5.994038 -0.571656,0.05281 -0.735061,0.05256 -1.316965,-0.002 z"
       id="path5009" />
  </g>
</svg>
